<svg width="50" height="50" viewBox="0 0 50 50" fill="none" xmlns="http://www.w3.org/2000/svg">
<g clip-path="url(#clip0_5885_393289)">
<path d="M0.584 19V3.248H6.282C7.52867 3.248 8.59933 3.65867 9.494 4.48C10.3887 5.28667 10.836 6.306 10.836 7.538C10.836 9.09267 10.1247 10.1853 8.702 10.816V10.904C9.50867 11.168 10.154 11.63 10.638 12.29C11.122 12.9353 11.364 13.676 11.364 14.512C11.364 15.8027 10.8947 16.8733 9.956 17.724C9.04667 18.5747 7.92467 19 6.59 19H0.584ZM2.608 5.184V10.002H6.282C7.00067 10.002 7.602 9.76 8.086 9.276C8.57 8.77733 8.812 8.21267 8.812 7.582C8.812 6.966 8.57733 6.40867 8.108 5.91C7.63867 5.426 7.05933 5.184 6.37 5.184H2.608ZM2.608 11.894V17.064H6.678C7.41133 17.064 8.03467 16.8073 8.548 16.294C9.04667 15.7807 9.296 15.172 9.296 14.468C9.296 13.7787 9.03933 13.1773 8.526 12.664C8.01267 12.1507 7.36733 11.894 6.59 11.894H2.608ZM14.7685 15.7C14.7685 16.228 14.9885 16.668 15.4285 17.02C15.8832 17.372 16.4112 17.548 17.0125 17.548C17.8632 17.548 18.6185 17.2327 19.2785 16.602C19.9532 15.9713 20.2905 15.2307 20.2905 14.38C19.6598 13.8813 18.7798 13.632 17.6505 13.632C16.8292 13.632 16.1398 13.83 15.5825 14.226C15.0398 14.622 14.7685 15.1133 14.7685 15.7ZM17.3865 7.868C18.8825 7.868 20.0632 8.27133 20.9285 9.078C21.7938 9.87 22.2265 10.9627 22.2265 12.356V19H20.2905V17.504H20.2025C19.3665 18.736 18.2518 19.352 16.8585 19.352C15.6705 19.352 14.6732 19 13.8665 18.296C13.0745 17.592 12.6785 16.712 12.6785 15.656C12.6785 14.5413 13.0965 13.654 13.9325 12.994C14.7832 12.334 15.9125 12.004 17.3205 12.004C18.5232 12.004 19.5132 12.224 20.2905 12.664V12.202C20.2905 11.498 20.0118 10.904 19.4545 10.42C18.8972 9.92133 18.2445 9.672 17.4965 9.672C16.3672 9.672 15.4725 10.1487 14.8125 11.102L13.0305 9.98C14.0132 8.572 15.4652 7.868 17.3865 7.868ZM26.5333 19H24.5093V8.22H26.4453V9.98H26.5333C26.7387 9.408 27.1567 8.924 27.7873 8.528C28.4327 8.11733 29.0633 7.912 29.6793 7.912C30.266 7.912 30.7647 8 31.1753 8.176L30.5593 10.134C30.31 10.0313 29.914 9.98 29.3713 9.98C28.6087 9.98 27.9413 10.288 27.3693 10.904C26.812 11.52 26.5333 12.2387 26.5333 13.06V19ZM36.6755 17.504C37.6728 17.504 38.4868 17.1447 39.1175 16.426C39.7775 15.7073 40.1075 14.7687 40.1075 13.61C40.1075 12.4807 39.7775 11.5493 39.1175 10.816C38.4722 10.0827 37.6582 9.716 36.6755 9.716C35.7075 9.716 34.8935 10.0827 34.2335 10.816C33.5735 11.5493 33.2435 12.4807 33.2435 13.61C33.2435 14.754 33.5735 15.6853 34.2335 16.404C34.8935 17.1373 35.7075 17.504 36.6755 17.504ZM36.3455 19.352C34.9375 19.352 33.7275 18.7947 32.7155 17.68C31.7182 16.5507 31.2195 15.194 31.2195 13.61C31.2195 12.026 31.7182 10.6693 32.7155 9.54C33.7275 8.42533 34.9375 7.868 36.3455 7.868C37.1375 7.868 37.8562 8.03667 38.5015 8.374C39.1615 8.71133 39.6675 9.15867 40.0195 9.716H40.1075L40.0195 8.22V3.248H42.0435V19H40.1075V17.504H40.0195C39.6675 18.0613 39.1615 18.5087 38.5015 18.846C37.8562 19.1833 37.1375 19.352 36.3455 19.352Z" fill="#18946c"/>
</g>
<defs>
<clipPath id="clip0_5885_393289">
<rect width="126" height="28" fill="white"/>
</clipPath>
</defs>
</svg>
